<svg xmlns="http://www.w3.org/2000/svg" viewBox="0 0 312.28 97.99"><defs><style>.cls-1{fill:#fff;}</style></defs><title>Asset 2</title><g id="Layer_2" data-name="Layer 2"><g id="Layer_1-2" data-name="Layer 1"><path class="cls-1" d="M46.1,39H40.3V8.6h5.8V19.8a7.21,7.21,0,0,1,5.2-2.2c6.1,0,9.5,5,9.5,11s-3.4,10.9-9.5,10.9a7.21,7.21,0,0,1-5.2-2.2Zm0-7A4.22,4.22,0,0,0,50,34.4c3.1,0,5-2.5,5-5.9s-1.9-5.9-5-5.9A4.28,4.28,0,0,0,46.1,25Z"/><path class="cls-1" d="M86.3,17.6c4.3,0,6.9,3,6.9,7.7V39H87.4V26.5c0-2.2-1-3.7-3-3.7a3.12,3.12,0,0,0-3.2,2.7V39H75.4V26.5c0-2.2-.9-3.7-2.9-3.7a3.29,3.29,0,0,0-3.3,2.7V39H63.4V18.1H69v1.7a7.31,7.31,0,0,1,10.9.5A8.33,8.33,0,0,1,86.3,17.6Z"/><path class="cls-1" d="M105.5,17.6c5.3,0,8.6,3.1,9.2,7.5H109a3.24,3.24,0,0,0-3.5-2.6c-2.7,0-4.3,2.4-4.3,6s1.6,5.9,4.3,5.9a3.31,3.31,0,0,0,3.5-2.6h5.7c-.6,4.5-3.9,7.5-9.2,7.5-5.9,0-10.1-4.5-10.1-10.9S99.6,17.6,105.5,17.6Z"/><path class="cls-1" d="M3.9,48C2,48,0,46.5,0,43.6V36.8a8.59,8.59,0,0,1,4.1-7.1l9.5-5.6L4.1,18.5A9.31,9.31,0,0,1,0,11.3V4.4A4.06,4.06,0,0,1,4,0,4.75,4.75,0,0,1,6.5.7L27.9,13.4a4.39,4.39,0,0,1,2.3,3.7,4.35,4.35,0,0,1-2.3,3.7l-5.1,3,5.1,3a4.51,4.51,0,0,1,2.4,3.7,4.26,4.26,0,0,1-2.4,3.7L6.5,47.3A5.09,5.09,0,0,1,3.9,48ZM18.2,26.8,6.5,33.7a4.35,4.35,0,0,0-1.8,3.1v6.1L25,30.9ZM4.7,5.2v6.1a4.35,4.35,0,0,0,1.8,3.1l11.7,6.9,6.9-4.1Z"/><path class="cls-1" d="M42.42,72V86.65H40.07V53h8q6.27,0,9.26,2.32t3,7A9.11,9.11,0,0,1,58.56,68a9.93,9.93,0,0,1-5.43,3.34l9.15,15.34H59.47L50.78,72Zm0-2h6.43A10.26,10.26,0,0,0,55.46,68a6.79,6.79,0,0,0,2.35-5.61q0-3.85-2.3-5.6T48,55.09H42.42Z"/><path class="cls-1" d="M77.65,87.11q-5.46,0-8.51-3.36t-3.05-9.42q0-6,2.95-9.6A9.73,9.73,0,0,1,77,61.12a8.58,8.58,0,0,1,7,3.09q2.56,3.09,2.56,8.39v1.84h-18q0,5.16,2.41,7.88A8.47,8.47,0,0,0,77.65,85a21,21,0,0,0,3.77-.3,22.86,22.86,0,0,0,4.11-1.29v2.07a18.34,18.34,0,0,1-3.92,1.26A21.75,21.75,0,0,1,77.65,87.11Zm-.67-24a7.5,7.5,0,0,0-5.81,2.38,11.24,11.24,0,0,0-2.56,6.88H84.1a10.92,10.92,0,0,0-1.89-6.81A6.23,6.23,0,0,0,77,63.15Z"/><path class="cls-1" d="M124.72,86.65V70.22q0-3.66-1.43-5.35a5.43,5.43,0,0,0-4.38-1.68q-3.85,0-5.69,2.12T111.38,72V86.65h-2.33V69.53q0-6.34-5.81-6.34-3.94,0-5.74,2.29t-1.8,7.34V86.65H93.43v-25h1.89L95.8,65h.14a7.18,7.18,0,0,1,2.95-2.89,8.78,8.78,0,0,1,4.22-1q5.92,0,7.6,4.45h.09a8.52,8.52,0,0,1,3.28-3.29,9.45,9.45,0,0,1,4.69-1.15q4.1,0,6.15,2.19t2,7V86.65Z"/><path class="cls-1" d="M145.2,87.11q-5.46,0-8.51-3.36t-3.05-9.42q0-6,2.95-9.6a9.74,9.74,0,0,1,7.95-3.61,8.58,8.58,0,0,1,7,3.09q2.56,3.09,2.56,8.39v1.84H136q0,5.16,2.41,7.88A8.48,8.48,0,0,0,145.2,85a21,21,0,0,0,3.77-.3,22.86,22.86,0,0,0,4.11-1.29v2.07a18.34,18.34,0,0,1-3.92,1.26A21.75,21.75,0,0,1,145.2,87.11Zm-.67-24a7.5,7.5,0,0,0-5.81,2.38,11.24,11.24,0,0,0-2.56,6.88h15.48a10.92,10.92,0,0,0-1.89-6.81A6.23,6.23,0,0,0,144.53,63.15Z"/><path class="cls-1" d="M170.15,61.12a10.4,10.4,0,0,1,4.7,1,9.37,9.37,0,0,1,3.55,3.39h.14q-.14-2.9-.14-5.69v-9h2.26V86.65h-1.5l-.58-3.82h-.18a9.27,9.27,0,0,1-8.2,4.29q-5.18,0-7.93-3.23t-2.74-9.4q0-6.5,2.72-9.93T170.15,61.12Zm0,2.07A7.08,7.08,0,0,0,164,66.08q-2.06,2.88-2.06,8.36,0,10.65,8.27,10.64,4.24,0,6.22-2.47t2-8.13v-.39q0-5.81-1.95-8.35T170.15,63.2Z"/><path class="cls-1" d="M184.87,61.61h2.35l5.3,14.05q2.42,6.47,3.06,8.73h.14q1-3,3.16-8.87l5.3-13.92h2.35l-11.22,29.1A22.68,22.68,0,0,1,193,95.5a6.1,6.1,0,0,1-2.15,1.87,6.56,6.56,0,0,1-3,.62A10.29,10.29,0,0,1,185,97.5v-2a10.82,10.82,0,0,0,2.88.37,3.87,3.87,0,0,0,2.07-.55,5.16,5.16,0,0,0,1.62-1.72,22.68,22.68,0,0,0,1.68-3.69q1-2.52,1.23-3.28Z"/><path class="cls-1" d="M220,63.59h-5.9V86.65h-2.28V63.59H207.2V62.25l4.65-.85V59.46q0-4.61,1.69-6.76t5.54-2.15a14.35,14.35,0,0,1,4.15.62l-.53,2a12.24,12.24,0,0,0-3.66-.58,4.32,4.32,0,0,0-3.79,1.58q-1.12,1.58-1.12,5.13v2.33H220Z"/><path class="cls-1" d="M245.58,74.09q0,6.13-3,9.57a10.26,10.26,0,0,1-8.2,3.44,10.62,10.62,0,0,1-5.81-1.59A10.16,10.16,0,0,1,224.75,81a16.58,16.58,0,0,1-1.34-6.87q0-6.13,3-9.55a10.24,10.24,0,0,1,8.16-3.42,10,10,0,0,1,8.1,3.47Q245.58,68.06,245.58,74.09Zm-19.77,0q0,5.16,2.27,8.05a8.56,8.56,0,0,0,12.83,0q2.27-2.89,2.27-8.05t-2.29-8a7.79,7.79,0,0,0-6.44-2.86A7.67,7.67,0,0,0,228.06,66Q225.81,68.89,225.81,74.09Z"/><path class="cls-1" d="M262.38,61.12a19.62,19.62,0,0,1,3.41.32l-.44,2.19a13.37,13.37,0,0,0-3.25-.39A6.31,6.31,0,0,0,256.85,66a11.08,11.08,0,0,0-2.05,6.87V86.65h-2.28v-25h1.94l.23,4.52h.16a10.62,10.62,0,0,1,3.29-3.88A7.72,7.72,0,0,1,262.38,61.12Z"/><path class="cls-1" d="M280.88,87.11a10.72,10.72,0,0,1-8.41-3.39q-3-3.39-3-9.45,0-6.22,3.16-9.69a11.1,11.1,0,0,1,8.64-3.47,17.37,17.37,0,0,1,6.22,1.13l-.62,2a18.27,18.27,0,0,0-5.64-1.08q-4.61,0-7,2.85t-2.37,8.19q0,5.07,2.37,7.94A8.14,8.14,0,0,0,280.83,85a16.28,16.28,0,0,0,6.34-1.22v2.12A14.36,14.36,0,0,1,280.88,87.11Z"/><path class="cls-1" d="M303.41,87.11q-5.46,0-8.51-3.36t-3.05-9.42q0-6,2.95-9.6a9.74,9.74,0,0,1,7.95-3.61,8.58,8.58,0,0,1,7,3.09q2.56,3.09,2.56,8.39v1.84h-18q0,5.16,2.41,7.88A8.48,8.48,0,0,0,303.41,85a21,21,0,0,0,3.77-.3,22.86,22.86,0,0,0,4.11-1.29v2.07a18.34,18.34,0,0,1-3.92,1.26A21.75,21.75,0,0,1,303.41,87.11Zm-.67-24a7.5,7.5,0,0,0-5.81,2.38,11.24,11.24,0,0,0-2.56,6.88h15.48A10.92,10.92,0,0,0,308,65.6,6.23,6.23,0,0,0,302.74,63.15Z"/></g></g></svg>